<svg xmlns="http://www.w3.org/2000/svg" width="104" height="104" viewBox="0 0 104 104">
    <defs>
        <style>
            .cls-1{fill:none;stroke:#65bc3e;stroke-linecap:round;stroke-linejoin:round;stroke-width:4px}
        </style>
    </defs>
    <g id="streamline-icon-smiley-smile-2_140x140" transform="translate(2 2)">
        <path id="Path_811" d="M4.375 54.375a50 50 0 1 0 50-50 50 50 0 0 0-50 50z" class="cls-1" transform="translate(-4.375 -4.375)"/>
        <path id="Path_812" d="M47.6 50.312a1.667 1.667 0 1 1-1.667 1.667 1.667 1.667 0 0 1 1.667-1.667" class="cls-1" transform="translate(-14.271 -15.312)"/>
        <path id="Path_813" d="M91.354 50.312a1.667 1.667 0 1 1-1.667 1.667 1.667 1.667 0 0 1 1.667-1.667" class="cls-1" transform="translate(-24.687 -15.312)"/>
        <path id="Path_814" d="M71.381 87.5a20.471 20.471 0 0 1-36.684 0" class="cls-1" transform="translate(-3.048 -21.515)"/>
    </g>
</svg>
