<svg xmlns="http://www.w3.org/2000/svg" width="40.083" height="40.417" viewBox="0 0 40.083 40.417">
    <g style="isolation:isolate">
        <path fill="none" stroke="#4f4f4f" stroke-linecap="round" stroke-linejoin="round" stroke-width="4px" d="M50.179 31.345l5.358 10.713 10.306 1.032a1.3 1.3 0 0 1 .795 2.22l-8.494 8.49 3.149 11.537a1.306 1.306 0 0 1-1.843 1.511l-10.438-5.22-10.438 5.226a1.3 1.3 0 0 1-1.84-1.511L39.881 53.8l-8.493-8.5a1.3 1.3 0 0 1 .795-2.22l10.306-1.032 5.358-10.713a1.3 1.3 0 0 1 2.333.005z" transform="translate(2.034 2) translate(-31.005 -30.621)"/>
    </g>
</svg>
