<svg xmlns="http://www.w3.org/2000/svg" width="497.619" height="198.635" viewBox="0 0 497.619 198.635"><defs><style>.a{fill:#47206f;opacity:0.4;}.b{fill:#4f4f4f;}.c,.h{fill:#7e21db;}.d,.f{fill:none;stroke-miterlimit:10;}.d{stroke:#4f4f4f;}.e{fill:#ab57ff;}.f{stroke:#3f3d56;}.g{fill:#fff;}.h{opacity:0.3;}</style></defs><g transform="translate(0.247 -143.505)"><ellipse class="a" cx="244.055" cy="16.157" rx="244.055" ry="16.157" transform="translate(6.081 309.827)"/><path class="b" d="M504.142,324.894c-39.763,0-68.313,25.511-68.313,85.037,0,67.462,28.55,85.32,68.313,85.32s70.013-19.558,70.013-85.32C574.155,339.634,543.9,324.894,504.142,324.894Zm.261,147.964c-27.541,0-41.929-16.158-41.929-62.883,0-41.229,14.977-62.971,42.518-62.971s42.518,14.281,42.518,62.971c0,45.548-15.567,62.884-43.107,62.884Z" transform="translate(-263.359 -175.786)"/><path class="c" d="M241.161,455.972h-16.44V407.559a9.7,9.7,0,0,0-9.7-9.7h-3.852a9.7,9.7,0,0,0-9.7,9.7v48.413H155.1a5.535,5.535,0,0,1-4.894-8.121l49.08-92.894a9.7,9.7,0,0,0-4.432-13.3l-2.9-1.368a9.7,9.7,0,0,0-12.691,4.2l-59.86,111.98a13.147,13.147,0,0,0-1.553,6.2h0a13.147,13.147,0,0,0,13.147,13.147h70.473v30.613A11.622,11.622,0,0,0,213.1,518.048h0a11.622,11.622,0,0,0,11.622-11.622V475.813h16.44a9.921,9.921,0,0,0,9.921-9.921h0a9.921,9.921,0,0,0-9.921-9.921Z" transform="translate(-92.502 -183.561)"/><path class="c" d="M899.157,455.972h-16.44V407.559a9.7,9.7,0,0,0-9.695-9.7H869.17a9.7,9.7,0,0,0-9.7,9.7v48.413H813.1a5.535,5.535,0,0,1-4.894-8.121l49.081-92.894a9.7,9.7,0,0,0-4.432-13.3l-2.9-1.368a9.7,9.7,0,0,0-12.691,4.2l-59.86,111.98a13.148,13.148,0,0,0-1.553,6.2h0A13.147,13.147,0,0,0,789,475.813h70.472v30.613A11.622,11.622,0,0,0,871.1,518.048h0a11.622,11.622,0,0,0,11.622-11.622V475.813h16.44a9.921,9.921,0,0,0,9.921-9.921h0a9.921,9.921,0,0,0-9.922-9.921Z" transform="translate(-446.068 -183.561)"/><path class="d" d="M250.964,443.719h-16.44V395.306a9.7,9.7,0,0,0-9.7-9.7h-3.852a9.7,9.7,0,0,0-9.7,9.7v48.413H164.907a5.535,5.535,0,0,1-4.894-8.121L209.094,342.7a9.7,9.7,0,0,0-4.432-13.3l-2.9-1.368a9.7,9.7,0,0,0-12.691,4.2l-59.86,111.979a13.147,13.147,0,0,0-1.553,6.2h0a13.147,13.147,0,0,0,13.147,13.147H211.28v30.613A11.622,11.622,0,0,0,222.9,505.8h0a11.622,11.622,0,0,0,11.622-11.622V463.56h16.44a9.921,9.921,0,0,0,9.921-9.921h0a9.921,9.921,0,0,0-9.921-9.921Z" transform="translate(-97.769 -176.977)"/><path class="d" d="M917.537,443.719H901.1V395.306a9.7,9.7,0,0,0-9.7-9.7h-3.852a9.7,9.7,0,0,0-9.7,9.7v48.413H831.481a5.535,5.535,0,0,1-4.894-8.121L875.668,342.7a9.7,9.7,0,0,0-4.432-13.3l-2.9-1.368a9.7,9.7,0,0,0-12.69,4.2l-59.86,111.979a13.147,13.147,0,0,0-1.553,6.2h0a13.147,13.147,0,0,0,13.147,13.147h70.473v30.613A11.622,11.622,0,0,0,889.475,505.8h0A11.622,11.622,0,0,0,901.1,494.173V463.56h16.44a9.921,9.921,0,0,0,9.921-9.921h0a9.921,9.921,0,0,0-9.921-9.921Z" transform="translate(-455.943 -176.977)"/><path class="d" d="M523.747,313.866c-39.763,0-68.313,25.511-68.313,85.037,0,67.462,28.55,85.32,68.313,85.32s70.014-19.558,70.014-85.32C593.76,328.606,563.51,313.866,523.747,313.866Zm.262,147.964c-27.541,0-41.929-16.158-41.929-62.883,0-41.229,14.977-62.971,42.518-62.971s42.518,14.281,42.518,62.971c0,45.548-15.566,62.884-43.107,62.884Z" transform="translate(-273.894 -169.861)"/><path class="e" d="M1062.554,555.74a9.629,9.629,0,1,0,1.282-18.467l.241,4.956-2.345-4.247a9.593,9.593,0,0,0-4.943,5.424,9.448,9.448,0,0,0-.554,2.6,9.627,9.627,0,0,0,6.318,9.73Z" transform="translate(-596.713 -289.791)"/><path class="f" d="M1092.893,603.611c-.828-4.215,2.759-7.952,6.3-10.381s7.683-4.815,8.891-8.937c1.737-5.924-3.437-11.349-7.465-16.028a57.981,57.981,0,0,1-7.645-11.362,15.642,15.642,0,0,1-1.828-5.166c-.318-2.626.526-5.239,1.376-7.743q4.247-12.516,9.081-24.822" transform="translate(-615.449 -280.179)"/><path class="f" d="M1063.4,552.982a9.629,9.629,0,1,0,1.282-18.467l.241,4.956-2.345-4.247a9.593,9.593,0,0,0-4.943,5.424,9.442,9.442,0,0,0-.554,2.6A9.627,9.627,0,0,0,1063.4,552.982Z" transform="translate(-597.17 -288.309)"/><path class="e" d="M1091.779,508.106a9.618,9.618,0,0,1,6.931-6.106l.793,4.712,1.47-4.949a9.628,9.628,0,1,1-9.193,6.343Z" transform="translate(-615.514 -270.825)"/><path class="f" d="M1092.919,504.428a9.618,9.618,0,0,1,6.931-6.106l.793,4.712,1.47-4.948a9.628,9.628,0,1,1-9.193,6.343Z" transform="translate(-616.127 -268.848)"/><path class="e" d="M1100.668,603.791a9.628,9.628,0,0,0,8.522-17.129l-1.129,3.8-.8-4.767-.024-.009a9.629,9.629,0,1,0-6.567,18.1Z" transform="translate(-617.19 -315.609)"/><path class="f" d="M1101.668,600.066a9.628,9.628,0,0,0,8.522-17.129l-1.129,3.8-.8-4.767-.024-.009a9.629,9.629,0,1,0-6.567,18.1Z" transform="translate(-617.728 -313.607)"/><path class="e" d="M1086.208,646.938a9.624,9.624,0,1,0,1.855-7.54l4.29,6.457-5.862-3.427A9.538,9.538,0,0,0,1086.208,646.938Z" transform="translate(-612.752 -342.766)"/><path class="f" d="M1087.058,644.181a9.624,9.624,0,1,0,1.856-7.54l4.29,6.457-5.862-3.427A9.541,9.541,0,0,0,1087.058,644.181Z" transform="translate(-613.209 -341.284)"/><path class="e" d="M67.222,613.879a6.327,6.327,0,1,0,.843-12.133L68.223,605l-1.541-2.791a6.3,6.3,0,0,0-3.248,3.563,6.2,6.2,0,0,0-.364,1.711,6.325,6.325,0,0,0,4.151,6.393Z" transform="translate(-63.054 -324.474)"/><path class="f" d="M87.154,645.332c-.544-2.769,1.813-5.224,4.14-6.82s5.048-3.164,5.842-5.872c1.141-3.892-2.259-7.457-4.9-10.53a38.086,38.086,0,0,1-5.023-7.465,10.274,10.274,0,0,1-1.2-3.394,11.715,11.715,0,0,1,.9-5.088q2.79-8.223,5.967-16.308" transform="translate(-75.363 -318.159)"/><path class="f" d="M67.785,612.067a6.327,6.327,0,1,0,.843-12.133l.158,3.256-1.541-2.79A6.3,6.3,0,0,0,64,603.963a6.2,6.2,0,0,0-.364,1.711,6.325,6.325,0,0,0,4.151,6.393Z" transform="translate(-63.357 -323.5)"/><path class="e" d="M86.425,582.583a6.319,6.319,0,0,1,4.554-4.012l.521,3.1.966-3.251a6.326,6.326,0,1,1-6.04,4.167Z" transform="translate(-75.408 -312.013)"/><path class="f" d="M87.176,580.167a6.319,6.319,0,0,1,4.554-4.012l.521,3.1L93.217,576a6.326,6.326,0,1,1-6.04,4.167Z" transform="translate(-75.812 -310.715)"/><path class="e" d="M92.268,645.45a6.326,6.326,0,0,0,5.6-11.254l-.742,2.5-.526-3.132-.016-.006a6.326,6.326,0,1,0-4.315,11.894Z" transform="translate(-76.51 -341.437)"/><path class="f" d="M92.918,643a6.326,6.326,0,0,0,5.6-11.254l-.742,2.5-.526-3.132-.016-.006A6.326,6.326,0,0,0,92.918,643Z" transform="translate(-76.86 -340.122)"/><path class="e" d="M82.763,673.8a6.323,6.323,0,1,0,1.219-4.954l2.819,4.242-3.851-2.252a6.267,6.267,0,0,0-.186,2.963Z" transform="translate(-73.592 -359.28)"/><path class="f" d="M83.326,671.987a6.323,6.323,0,1,0,1.219-4.954l2.819,4.243-3.851-2.252A6.267,6.267,0,0,0,83.326,671.987Z" transform="translate(-73.894 -358.306)"/><ellipse class="c" cx="7.865" cy="10.179" rx="7.865" ry="10.179" transform="translate(214.651 209.303)"/><ellipse class="c" cx="7.865" cy="10.179" rx="7.865" ry="10.179" transform="translate(257.448 209.535)"/><path class="c" d="M590.185,532.828c0,4.6-6.422,8.328-14.343,8.328s-14.343-3.729-14.343-8.328c0-3.984,4.816-7.315,11.252-8.129a23.178,23.178,0,0,1,3.091-.2,23.462,23.462,0,0,1,5.149.555C586.368,526.253,590.185,529.284,590.185,532.828Z" transform="translate(-330.887 -283.042)"/><ellipse class="f" cx="7.865" cy="10.179" rx="7.865" ry="10.179" transform="translate(216.502 206.99)"/><ellipse class="f" cx="7.865" cy="10.179" rx="7.865" ry="10.179" transform="translate(259.298 207.221)"/><ellipse class="f" cx="14.343" cy="8.328" rx="14.343" ry="8.328" transform="translate(232.464 239.145)"/><circle class="g" cx="2.313" cy="2.313" r="2.313" transform="translate(222.054 212.079)"/><circle class="g" cx="2.313" cy="2.313" r="2.313" transform="translate(265.082 212.079)"/><circle class="h" cx="2.313" cy="2.313" r="2.313" transform="translate(267.395 233.824)"/><circle class="h" cx="2.313" cy="2.313" r="2.313" transform="translate(210.95 233.824)"/></g></svg>