<svg xmlns="http://www.w3.org/2000/svg" width="316.447" height="342.273" viewBox="0 0 316.447 342.273">
    <defs>
        <style>
            .cls-1{fill:none;stroke:#4f4f4f;stroke-miterlimit:10;stroke-width:2px}.cls-2{fill:#4f4f4f}.cls-3{fill:#7e21db}.cls-18{fill:#47206f}.cls-14,.cls-6{opacity:.1}.cls-7{fill:#d0cde1}.cls-10{fill:#e29696}.cls-11{fill:#e6e6e6}.cls-12{fill:#2f2e41}.cls-15{fill:#3a3768}.cls-16{opacity:.2}.cls-17{fill:#393939}.cls-19{fill:#a3a3a3}.cls-20{fill:#fff}
        </style>
    </defs>
    <g id="Payment_fail_illustration" transform="translate(-365.054 -89.714)">
        <path id="Path_2" d="M453.48 677.633S439.183 652.3 417.638 645c-9.041-3.063-12.872-4.754-18.269-12.63" class="cls-1" transform="translate(8.081 -266.965)"/>
        <path id="Path_5" d="M410.509 692.426c3.232-1.119 10.568-10.216 10.568-10.216s-11.4-2.608-14.63-1.489a6.195 6.195 0 0 0 4.039 11.705z" class="cls-2" transform="translate(2.759 -304.87)"/>
        <path id="Path_6" d="M481.887 733.028c3.373-.556 12.152-8.28 12.152-8.28s-10.794-4.5-14.169-3.941a6.194 6.194 0 0 0 2.017 12.222z" class="cls-2" transform="translate(-47.017 -332.656)"/>
        <path id="Path_7" d="M12.389 6.188c0 3.418-6.188 13.343-6.188 13.343S0 9.614 0 6.195a6.194 6.194 0 1 1 12.389 0z" class="cls-2" transform="rotate(-54.975 544.809 -194.49)"/>
        <path id="Path_17" d="M512.12 627s-3.392-35.121-23.7-53.8a53.4 53.4 0 0 1-16.548-29.5 89.749 89.749 0 0 1-1.482-16.379" class="cls-1" transform="translate(-51.557 -216.939)"/>
        <path id="Path_18" d="M435.723 478.819c1.549 3.849 13.013 12.2 13.013 12.2s2.469-13.967.92-17.815a7.518 7.518 0 1 0-13.948 5.617z" class="cls-3" transform="translate(-29.608 -180.286)"/>
        <path id="Path_19" d="M423.6 542.164c3.392 2.386 17.555 3.167 17.555 3.167s-5.515-13.065-8.907-15.455a7.512 7.512 0 1 0-8.648 12.286z" class="cls-3" transform="translate(-20.42 -217.678)"/>
        <path id="Path_20" d="M457.717 636.028c4.147.347 16.752-6.129 16.752-6.129s-11.358-8.5-15.493-8.84a7.512 7.512 0 1 0-1.259 14.971z" class="cls-3" transform="translate(-39.347 -275.323)"/>
        <path id="Path_21" d="M506.7 702.223c4.018 1.04 17.548-3.212 17.548-3.212s-9.76-10.291-13.774-11.331a7.512 7.512 0 1 0-3.77 14.544z" class="cls-3" transform="translate(-70.676 -316.698)"/>
        <path id="Path_22" d="M491.244 542.025c-1.681 3.8-13.42 11.753-13.42 11.753s-2-14.042-.32-17.834a7.513 7.513 0 1 1 13.74 6.081z" class="cls-3" transform="translate(-55.571 -219.525)"/>
        <path id="Path_23" d="M541.889 616.559c-2.737 3.118-16.319 7.2-16.319 7.2s2.3-14 5.032-17.11a7.51 7.51 0 1 1 11.286 9.911z" class="cls-3" transform="translate(-85.936 -264.773)"/>
        <path id="Path_24" fill="#6c63ff" d="M586.223 700.93c-2.187 3.536-14.869 9.858-14.869 9.858s-.106-14.181 2.066-17.717a7.518 7.518 0 0 1 12.817 7.863z" transform="translate(-114.461 -317.973)"/>
        <ellipse id="Ellipse_1" cx="158.152" cy="10.355" fill="#47206f" opacity="0.4" rx="158.152" ry="10.355" transform="translate(365.054 411.276)"/>
        <path id="Path_79" d="M1015.32 299.085s13.316-4.265 14.678 0z" class="cls-6" transform="translate(-370.776 -115.185)"/>
        <g id="Group_8" transform="translate(507.867 89.714)">
            <path id="Path_26" d="M695.55 291.76s3.01-15.789 12.7-15.87l7.078 14.57-4.72 3.255s-10.258.326-15.058-1.955z" class="cls-7" transform="translate(-675.763 -181.555)"/>
            <path id="Path_27" d="M715.326 290.473l-4.72 3.259a55.81 55.81 0 0 1-12.378-1.041 14.277 14.277 0 0 1-2.68-.914.937.937 0 0 1 .055-.254.538.538 0 0 1 0-.06 35.726 35.726 0 0 1 1.833-5.8c.3-.707.635-1.439 1-2.167 1.418-2.73 3.412-5.406 6.138-6.731a8.381 8.381 0 0 1 3.23-.846h.432l.152.322 2.4 4.923z" opacity="0.502" transform="translate(-675.763 -181.571)"/>
            <path id="Path_28" d="M922.158 403.768s10.16-.977 11.069-.245 6.676 4.479 10.092 2.116 1.139-10.583 1.139-10.909-.322-11.962-.322-11.962l-6.108-8.221-7.649-14.392-15.629-1.545.424 22.859-.081 11.722z" class="cls-7" transform="translate(-802.174 -229.259)"/>
            <path id="Path_29" d="M922.158 403.768s10.16-.977 11.069-.245 6.676 4.479 10.092 2.116 1.139-10.583 1.139-10.909-.322-11.962-.322-11.962l-6.108-8.221-7.649-14.392-15.629-1.545.424 22.859-.081 11.722z" opacity="0.503" transform="translate(-802.174 -229.259)"/>
            <path id="Path_30" d="M689.132 254.518s-.809 9.931-7 10.092c0 0-1.752-1.058-4.11-2.819-5.435-4.068-14.062-11.887-11.679-19.159 3.42-10.417 20.023 8.792 20.023 8.792l1.27 1.431z" class="cls-10" transform="translate(-658.686 -160.589)"/>
            <path id="Path_31" d="M704.877 272.665s-.809 9.931-7 10.092c0 0-1.752-1.058-4.11-2.819l-.529-.677a8.081 8.081 0 0 0 3.387.91 4.576 4.576 0 0 0 4.424-2.785 35.447 35.447 0 0 0 1.693-3.941 11.621 11.621 0 0 0 .628-2.445z" class="cls-6" transform="translate(-674.431 -178.736)"/>
            <path id="Path_32" d="M702.838 289.521l-1.393-1.791-4.7-6.032-2.388-3.082a8.042 8.042 0 0 0 3.387.914 4.583 4.583 0 0 0 4.428-2.79 35.289 35.289 0 0 0 1.693-3.941c.775-2.2.758-3.329.488-3.708a25.328 25.328 0 0 1 2.688 2.388l.034.034c.275.254.453.423.453.423l.165.33 2.358 4.716.025.2c.217 1.498 1.013 10.992-7.238 12.339z" class="cls-11" transform="translate(-675.076 -177.605)"/>
            <path id="Path_33" d="M767.85 794.621s-6.836 4.479-10.253 3.81a12.129 12.129 0 0 0-6.921 1.143 20.6 20.6 0 0 1-8.631 5.618c-5.533 1.871-13.262 1.138-17.656-.33-2.083-.69-2.248-1.587-1.249-2.688 1.113-1.232 3.666-2.718 6.621-4.475 5.613-3.336 11.637-9.931 11.637-9.931a3.532 3.532 0 0 1 1.058-2.358 12.644 12.644 0 0 0 1.642-1.693c.872-1.033 1.693-2.116 1.693-2.116l20.107.652s.343 1.452.609 2.934a10.44 10.44 0 0 1 .284 2.929 2.646 2.646 0 0 0 .571 2.032l.36 3.323z" class="cls-12" transform="translate(-691.332 -473.194)"/>
            <path id="Path_34" d="M901.167 802.31c-.241.973-.532 2.722-.666 3.543-.044.279-.068.449-.068.449s-1.63 3.581-10.663 4.885-9.033-3.014-9.033-3.014.034-.466.093-1.164c.157-1.905.482-5.548.719-6.324.326-1.058-.241-5.7-.241-5.7l-.1-4.851-.068-3.387 14.979-1.549a28.662 28.662 0 0 0 .483 3.336 4.235 4.235 0 0 0 .656 1.693c.813.9 1.3 4.885 1.3 4.885s2.926 5.894 2.609 7.198z" class="cls-12" transform="translate(-782.559 -475.271)"/>
            <path id="Path_35" d="M795.163 782.236s.343 1.452.609 2.934c-2.171.4-11.666 2.044-14.041.893-2.683-1.3-8.466-2.036-8.466-2.036l.1-.33c.872-1.033 1.693-2.116 1.693-2.116z" class="cls-6" transform="translate(-720.581 -473.183)"/>
            <path id="Path_36" d="M897.139 788.552c-3.81-.644-12.115.914-15.391 1.583l-.068-3.387 14.977-1.549a28.655 28.655 0 0 0 .482 3.353z" class="cls-6" transform="translate(-783.103 -475.271)"/>
            <path id="Path_37" d="M841.092 434.456l-.326 11.476s.423 17.5-.813 20.268-1.223 13.918-1.223 13.918.817 5.291-.08 6.426-.245 5.376.423 7.573.076 7.654.076 7.654l-.161 30.766s-.893 7.975-2.036 9.118a2.667 2.667 0 0 0-.648 2.6s-.977 4.555-.732 5.371.732 2.684-1.139 3.577-1.388 3.746-1.388 3.746c-4.475-1.058-17.169 1.795-17.169 1.795a74.272 74.272 0 0 1-3.586-8.712 4.5 4.5 0 0 1 3.255-5.926c1.706-.229-1.219-3.26-1.219-3.26s.326-.423-.488-3.336.161-10.422.423-12.373 1.465-11.4 1.465-11.4-.648-11.962-.161-12.453 2.116-5.211 1.3-6.773-2.116-11.722-2.116-12.276-1.058-13.758-1.058-13.758-.973-9.2-.732-11.15-.652-9.194-.652-9.194c0-6.028-3.5-12.538-3.5-12.538l-.089.233-7.564 19.9s-1.219 6.02-2.281 9.44a61.86 61.86 0 0 0-1.587 7.065l-.072.423c-.03.182-.055.339-.072.457l-.051.33s.567 4.313-.326 5.7a20.361 20.361 0 0 0-1.909 6.688c0 1.155.076 5.541.076 5.541s.33 8.708-.567 9.685a1.537 1.537 0 0 0-.423 1.791s1.469 6.591.817 8.3-.161 5.693-.161 5.693-1.291 12.589-1.435 13.249-1.058 5.7-.085 6.1 2.849 2.849 2.849 2.849.423 10.663-1.054 11.476-.656 4.965-.656 4.965-11.8 2.281-14.485.977-8.466-2.036-8.466-2.036l.809-2.675c-.044.093-.584.961-.969-2.371-.423-3.5 3.014-1.791 3.014-1.791s2.684.652-1.634-3.581-2.2-8.547-1.953-8.547.813-6.265.813-6.265a20.817 20.817 0 0 0 .161-6.676c-.572-2.93-1.054-12.047-1.054-12.047s.423-6.917-.326-9.44.488-7.082.732-8.144-.732-10.741-.732-10.741a29.948 29.948 0 0 0 .326-7.891c-.491-3.336.491-15.628.491-15.628l1.465-14.164s1.054-4.394.893-6.184 1.219-8.043 1.219-8.043a8.852 8.852 0 0 1 .652-3.906c.813-1.625 1.143-7 1.143-7l7.814-17.91 3.81-15.789 51.686-.488s.191 1.367.5 3.856.758 6.176 1.27 10.722c.449 4.131.94 8.991 1.42 14.393 1.531 17.25-1.724 20.345-1.724 20.345z" class="cls-12" transform="translate(-718.585 -244.563)"/>
            <path id="Path_38" d="M889.39 146.817l-12.052 12.864s-15.459-6.189-13.834-8.305c.631-.821.529-3.387.165-6.258-.571-4.5-1.791-9.7-1.791-9.7s27.02-4.394 24.738.161a7.39 7.39 0 0 0-.169 5.406 20.321 20.321 0 0 0 2.942 5.829z" class="cls-10" transform="translate(-771.684 -99.447)"/>
            <path id="Path_39" d="M886.618 135.584c-.846 1.668-1.228 1.829-.707 3.624-3.534 3.81-8.043 7.937-13.614 7.937a19.274 19.274 0 0 1-8.627-2.024c-.571-4.5-1.79-9.7-1.79-9.7s27.02-4.392 24.738.163z" class="cls-6" transform="translate(-771.684 -99.449)"/>
            <path id="Path_40" d="M879.46 92.21a19.375 19.375 0 1 1-38.749 0v-.279a19.371 19.371 0 0 1 38.741.279z" class="cls-10" transform="translate(-759.477 -64.376)"/>
            <path id="Path_41" d="M864.647 406.1c-2.565.021-11.112.093-20.662.245h-.115l-3.156.053h-.1c-11.323.182-22.482-2.032-26.961-1.609-9.524.893 3.418-8.792 3.418-8.792a79.592 79.592 0 0 0 21.695 2.193l2.739-.14c8.655-.491 17.355-1.3 21.893-2.667.318 2.517.758 6.189 1.249 10.717z" class="cls-6" transform="translate(-741.857 -250.466)"/>
            <path id="Path_42" fill="#7c5c5c" d="M864.645 404.942c-2.565 0-11.112.093-20.662.241h-.115l-3.158.055h-.1c-11.323.182-22.482-2.032-26.961-1.613-9.524.893 3.418-8.788 3.418-8.788a79.79 79.79 0 0 0 21.695 2.193l2.739-.144c8.655-.488 17.355-1.3 21.894-2.667.319 2.515.759 6.181 1.25 10.723z" transform="translate(-741.855 -249.794)"/>
            <path id="Path_43" d="M838.033 173.639l-14.977 7-11.556 89.37s6.836-3.09 10.742-1.139 15.95.165 15.95.165 8.792-.491 10.1.488 16.6-4.068 16.6-4.068 2.768-6.189.652-7.162.652-10.583.652-10.583l-1.3-64.466-2.6-8.3-7-4.236-7.171 5.7-3.387.488z" class="cls-6" transform="translate(-742.63 -120.898)"/>
            <path id="Path_44" d="M838.033 171.324l-14.977 7L811.5 267.7s6.836-3.094 10.742-1.138 15.95.161 15.95.161 8.792-.488 10.1.488 16.6-4.068 16.6-4.068 2.768-6.184.652-7.162.652-10.583.652-10.583l-1.3-64.474-2.6-8.3-7-4.235-7.171 5.7-3.387.482z" class="cls-11" transform="translate(-742.63 -119.56)"/>
            <path id="Path_45" d="M857.745 183.335s4.313 5.126 4.233 6.184-.241 3.581-.241 3.581l-3.259 6.6s-1.791 8.221-1.791 9.931-2.849 16.509-2.849 16.509l-3.418 22.791-4.313 29.869 4.394 7.569 5.211-4.394 6.917-53.235 1.465-10.5s1.545-18.884 1.545-20.835a66.722 66.722 0 0 0-.893-7.082s1.058-4.885 5.452-6.024-.326-.245-.326-.245l-2.54-2.036-2.2.9s-6.083-1.86-7.387.417z" class="cls-6" transform="translate(-762.588 -127.419)"/>
            <path id="Path_46" d="M856.62 182.212s4.313 5.126 4.233 6.184-.245 3.581-.245 3.581l-3.255 6.6s-1.769 8.211-1.769 9.918-2.85 16.505-2.85 16.505l-3.442 22.825L845 277.676l4.4 7.573 5.186-4.407 6.924-53.222 1.465-10.5s1.545-18.884 1.545-20.839a66.573 66.573 0 0 0-.893-7.082s1.058-4.882 5.452-6.024-.326-.241-.326-.241l-2.54-2.036-2.163.888s-6.127-1.862-7.43.426z" class="cls-12" transform="translate(-761.95 -126.774)"/>
            <path id="Path_47" d="M861.287 163.79s-.652.488-.813 3.742-2.441 10.583-2.441 10.583 8.466-5.863 12.7-5.211z" class="cls-6" transform="translate(-769.466 -116.907)"/>
            <path id="Path_48" d="M861.287 161.48s-.652.488-.813 3.746-2.441 10.583-2.441 10.583 8.466-5.859 12.7-5.206z" class="cls-11" transform="translate(-769.466 -115.575)"/>
            <path id="Path_49" d="M902.141 157.63l-13.351 11.721s11.234 6.676 12.7 8.305 2.929-15.956 2.929-15.956z" class="cls-6" transform="translate(-787.203 -113.355)"/>
            <path id="Path_50" d="M903.326 155.33L890 167.043s11.23 6.671 12.7 8.3 2.934-15.955 2.934-15.955z" class="cls-11" transform="translate(-787.901 -112.028)"/>
            <path id="Path_51" d="M813.932 163.624s-1.465-.732-2.849 1.384a9.178 9.178 0 0 1-3.988 3.09s-14.816 2.362-15.383 4.313l-6.917.423s-2.441.322-2.688 5.452-1.562 5.6-1.562 5.6-2.849 5.046-2.608 7.649a4.276 4.276 0 0 1-2.2 3.906L785.9 221.9s.326 10.909-1.549 14.9-5.371 21.652-5.371 21.652 1.469-.326 1.385.648-1.791 11.641-1.791 11.641-.488 4.233-1.3 5.7-.9 9.118-.9 9.118l-1.3 5.533s3.094 6.921 7.814 5.926 13.322-19.43 13.322-19.43l5.452-19.942 4.233-19.7 1.219-13.347 1.956-29.547 2.849-19.536s3.156-10.506 2.013-11.892z" class="cls-6" transform="translate(-721.624 -116.74)"/>
            <path id="Path_52" d="M812.826 161.314s-1.465-.732-2.849 1.384a9.2 9.2 0 0 1-3.988 3.094s-14.816 2.358-15.383 4.313l-6.921.423s-2.441.326-2.684 5.452-1.549 5.617-1.549 5.617-2.849 5.046-2.6 7.649a4.268 4.268 0 0 1-2.2 3.906l10.159 26.454s.326 10.909-1.545 14.9-5.371 21.652-5.371 21.652 1.465-.326 1.384.652-1.791 11.637-1.791 11.637-.488 4.233-1.3 5.7-.893 9.118-.893 9.118l-1.295 5.51s3.094 6.921 7.814 5.926 13.267-19.451 13.267-19.451l5.456-19.942 4.233-19.7 1.223-13.347 1.953-29.547 2.849-19.536s3.169-10.478 2.031-11.864z" class="cls-12" transform="translate(-721.005 -115.408)"/>
            <path id="Path_53" d="M714.681 289.789l-4.72 3.261a55.809 55.809 0 0 1-12.378-1.041l-2.625-1.168-.529-.229.542.169a10.748 10.748 0 0 0 6.515.233c6.68-2.248 5.926-13.279 5.685-15.777-.025-.25-.044-.423-.055-.474a.151.151 0 0 1 0-.03l.038.063a2.987 2.987 0 0 0 .311.423c.093.106.19.216.3.317l2.358 4.716.025.2z" class="cls-6" transform="translate(-675.117 -180.888)"/>
            <path id="Path_54" d="M731.688 235.12l-2.278.652-.326 4.657s-2.688-.423-3.42 2.768a11.184 11.184 0 0 1-2.032 4.657s-4.479 3.746-4.724 6.917l-2.764 1.693s-6.436-1.5-7.894-4.084c0 0 2.93 21-12.7 15.87 0 0 17.5 7.654 18.312 8.712s6.189 4.148 11.07 1.545a11.778 11.778 0 0 0 5.943-6.608s4.72-6.595 4.885-7.573 3.81-2.116 3.81-2.116l7-16.934z" class="cls-12" transform="translate(-675.763 -158.043)"/>
            <path id="Path_55" d="M913.667 166.076l2.358-10.741s1.058 3.5 2.117 4.313l3.5 2.684s3.5 1.63 4.72 1.63 7.814 1.693 8.627 2.6 4.072.245 4.072.245 2.684.893 5.046 1.465 3.5 4.479 3.01 6.024a4.7 4.7 0 0 0 1.143 4.394c.973.976 1.465 4.153 1.465 4.153a4.762 4.762 0 0 1 2.764 2.358c.817 1.791.572 5.7.572 5.7l-12.128 17.093s.161 6.6-.326 8.043 1.693 26.373 1.693 26.373l2.54 42.813a45.35 45.35 0 0 1-4.068 3.175c-.732.326-1.469-15.142-1.469-15.709s-18.8-28.163-18.8-28.163-2.54-4.072-2.54-4.966-2.362-9.118-2.362-9.118l-3.583-15.872z" class="cls-6" transform="translate(-800.6 -112.031)"/>
            <path id="Path_56" d="M955.421 189.929c0 .559-.03.932-.03.932l-12.117 17.08s.17 6.591-.322 8.043c-.284.846.339 9.609.914 16.8.423 5.193.8 9.571.8 9.571l1.071 18.16 1.448 24.653a45.347 45.347 0 0 1-4.068 3.175c-.732.326-1.465-15.142-1.465-15.713s-18.8-28.159-18.8-28.159-2.54-4.072-2.54-4.965-2.358-9.118-2.358-9.118l-3.581-15.874 1.625-48.506 1.384-10.741s2.036 3.5 3.094 4.309 3.5 2.688 3.5 2.688 3.5 1.63 4.724 1.63 7.814 1.693 8.627 2.6 4.072.245 4.072.245 2.684.893 5.041 1.465 3.5 4.479 3.014 6.019a4.694 4.694 0 0 0 1.138 4.4c.977.977 1.465 4.148 1.465 4.148a4.779 4.779 0 0 1 2.768 2.366 13.351 13.351 0 0 1 .596 4.792z" class="cls-12" transform="translate(-801.953 -111.992)"/>
            <path id="Path_57" d="M776.31 749.48c.423 0 17.5.652 17.173 3.42s-17.173-3.42-17.173-3.42z" class="cls-6" transform="translate(-722.337 -454.671)"/>
            <path id="Path_58" d="M785.35 760.44s11.476 1.871 8.466 3.581-8.466-3.581-8.466-3.581z" class="cls-6" transform="translate(-727.55 -460.991)"/>
            <path id="Path_59" d="M886.1 745.25s19.049 1.63 16.2 3.742-9.6 2.441-9.931 2.54-6.269-6.282-6.269-6.282z" class="cls-6" transform="translate(-785.652 -452.231)"/>
            <path id="Path_60" d="M880.72 765.06s10.583 1.791 10.9 3.81-10.9-3.81-10.9-3.81z" class="cls-6" transform="translate(-782.549 -463.656)"/>
            <path id="Path_61" d="M894.56 649.3s9.685 2.277 10.257 3.81z" class="cls-6" transform="translate(-790.531 -396.898)"/>
            <path id="Path_62" d="M803.179 665.84s-5.046 1.465-.161 4.394.161-4.394.161-4.394z" class="cls-6" transform="translate(-736.511 -406.436)"/>
            <path id="Path_63" d="M859.18 478.38c.571 0 9.444-2.93 12.534-1.625a20.575 20.575 0 0 0 6.921 1.3z" class="cls-6" transform="translate(-770.127 -297.199)"/>
            <path id="Path_64" d="M846.184 496.933l-.089.8-7.564 19.9s-1.219 6.019-2.281 9.44a61.821 61.821 0 0 0-1.587 7.065l6.719-41.657z" class="cls-6" transform="translate(-755.988 -306.461)"/>
            <path id="Path_65" d="M882.845 408.816l-3.158.055h-.1l-1.85-8.2c.91-.044 1.82-.093 2.739-.148z" class="cls-12" transform="translate(-780.831 -253.427)"/>
            <path id="Path_66" d="M935.85 386l-2.028 1.668-6.772 5.567s-18.316 9.77-23.362.491c-4.449-8.174 16.318-14.011 21.318-15.286.681-.174 1.065-.258 1.065-.258z" class="cls-10" transform="translate(-795.437 -240.548)"/>
            <path id="Path_67" d="M795.73 207.63s3.581 1.625 4.394 3.906-4.394-3.906-4.394-3.906z" class="cls-6" transform="translate(-733.536 -142.19)"/>
            <path id="Path_68" d="M764.675 265.31s-5.211 6.349-3.094 8.792 3.094-8.792 3.094-8.792z" class="cls-6" transform="translate(-713.551 -175.453)"/>
            <path id="Path_69" d="M982.678 216.09s-4.885.488-5.046 4.72z" class="cls-6" transform="translate(-838.438 -147.068)"/>
            <path id="Path_70" d="M882.64 352.344c.488-.488 11.721-17.093 14.325-15.628z" class="cls-6" transform="translate(-783.657 -216.579)"/>
            <path id="Path_71" d="M879.473 92.186a19.305 19.305 0 0 1-2.29 9.144l-.144-.025c-1.228-.258-1.867-1.693-2.807-2.582a3.81 3.81 0 0 0-4.394-.618 4.47 4.47 0 0 0-2.159 4.178c-.618-2.608-.424-5.38-1.029-7.992s-2.43-5.253-4.923-5.3c-1.075 0-2.332.4-3.107-.423-.47-.488-.567-1.27-.919-1.842-1.782-2.885-7.2-1.427-9.423.051-2.142 1.42-4.794 3.844-7.546 5.114a19.371 19.371 0 1 1 38.741.279z" class="cls-6" transform="translate(-759.49 -64.352)"/>
            <path id="Path_72" d="M851 74.935c.355.589.449 1.359.919 1.842.775.8 2.032.394 3.107.423 2.493.044 4.318 2.688 4.923 5.3s.423 5.38 1.028 7.99a4.462 4.462 0 0 1 2.163-4.172 3.81 3.81 0 0 1 4.39.614c.94.893 1.579 2.324 2.807 2.582s2.413-.919 2.853-2.214a33.894 33.894 0 0 0 .7-4.055c.554-2.54 2.21-4.616 3.128-7.031a12.75 12.75 0 0 0-.085-9.093c-.609-1.528-1.52-2.9-2.116-4.432-.94-2.32-6.151-5.444-7.29-7.654-1.917-3.7-.681-1.393-4.39 0-1.769.666-4.089-1.7-5.884-1.113-2.409.771-4.978.19-7.472-.157s-5.241-.381-7.243 1.27c-2.3 1.884-2.934 5.427-5.08 7.5-.91.868-2.042 1.42-3 2.226a4.162 4.162 0 0 0-1.693 3.306c.144 1.693 1.795 3.217 1.185 4.779a3.87 3.87 0 0 1-.9 1.19 16.955 16.955 0 0 0-3.941 6.7c4.356 1.359 9.072-3.442 12.479-5.71 2.206-1.514 7.628-2.957 9.412-.091z" class="cls-12" transform="translate(-752.785 -53.036)"/>
            <path id="Path_73" d="M965.32 386.009l-2.028 1.668c-1.786-2.963-9.122-8.919-9.122-8.919l.317-.3c.681-.174 1.065-.258 1.065-.258z" class="cls-6" transform="translate(-824.907 -240.553)"/>
            <path id="Path_74" d="M967.945 379.452s-.728 1.812-1.482 3.387-1.57 2.988-1.613 1.833c-.08-2.281-9.52-9.935-9.52-9.935l1.27-1.243 1.486-1.439z" class="cls-11" transform="translate(-825.577 -237.012)"/>
            <path id="Path_75" d="M968.372 348.028l1.071 18.16c-2.54-3.933-9.469-14.011-13.937-13.686l10.83-12.449a14.558 14.558 0 0 0 1.24-1.6c.415 5.198.796 9.575.796 9.575z" class="cls-6" transform="translate(-825.678 -217.636)"/>
            <path id="Path_76" d="M969.687 379.45s-.728 1.812-1.482 3.387c-2.836-3.89-6.739-8.487-9.854-9.346l1.486-1.439z" class="cls-6" transform="translate(-827.319 -237.01)"/>
            <path id="Path_77" d="M976.855 234l2.929 2.277s4.882.085 5.371 4.153 4.965 5.926 4.965 5.926 3.336 3.336 3.336 4.882S996 255.557 996 255.8s2.441 5.211 2.116 6.1 2.6 4.8 1.693 6.269a35.9 35.9 0 0 0-1.956 4.068s-3.81 7.327-5.778 8.712-10.9 13.021-10.9 13.021-9.6 11.069-9.6 14.49c0 0-9.365-15.628-14.9-15.239l10.824-12.454s1.875-2.032 1.956-3.255 5.207-6.835 7.649-7.082c0 0 .423-3.336-.652-3.418s-1.953-2.688-1.953-2.688-7.162-8.466-7.243-13.838S976.855 234 976.855 234z" class="cls-12" transform="translate(-826.348 -157.397)"/>
            <path id="Path_78" d="M1006.951 252.24s-6.841 5.046-5.371 6.671 5.371-6.671 5.371-6.671z" class="cls-6" transform="translate(-852.129 -167.916)"/>
            <path id="Path_80" d="M767.85 810.769s-6.836 4.479-10.253 3.81a12.129 12.129 0 0 0-6.921 1.143 20.6 20.6 0 0 1-8.631 5.617c-5.533 1.871-13.262 1.139-17.656-.33-2.083-.69-2.248-1.587-1.249-2.688 4.779.953 15.459 2.845 18.338 1.469a75.993 75.993 0 0 0 9.114-5.7s7.006-.976 7.979-.976c.694 0 6.1-2.231 9.152-3.514z" class="cls-6" transform="translate(-691.332 -489.343)"/>
            <path id="Path_82" d="M800.942 249.93s0 18.558-1.587 20.391 1.587-20.391 1.587-20.391z" class="cls-6" transform="translate(-735.37 -166.584)"/>
            <path id="Path_83" d="M977.05 264.06l2.358 6.631s.939-6.508-2.358-6.631z" class="cls-6" transform="translate(-838.102 -174.732)"/>
            <g id="Group_1" class="cls-14" transform="translate(76.307 13.53)">
                <path id="Path_84" d="M839.131 89.657c.6-1.528-.965-3.022-1.168-4.657a3.061 3.061 0 0 0-.262 1.473c.106 1.232 1.016 2.388 1.27 3.526a1.916 1.916 0 0 0 .161-.343z" transform="translate(-834.043 -85)"/>
                <path id="Path_85" d="M861.175 114.152c-.584-2.57-.423-5.287-1.008-7.852s-2.426-5.258-4.919-5.3c-1.075 0-2.333.394-3.111-.423-.466-.482-.563-1.27-.914-1.842-1.782-2.885-7.2-1.42-9.427.055-3.332 2.214-7.9 6.841-12.17 5.791a15.437 15.437 0 0 0-.554 1.509c4.356 1.359 9.072-3.442 12.479-5.71 2.222-1.477 7.645-2.963 9.427-.055.355.589.449 1.359.919 1.842.775.8 2.032.394 3.107.423 2.493.044 4.318 2.688 4.923 5.3s.423 5.38 1.028 7.99a4.394 4.394 0 0 1 .222-1.723z" transform="translate(-829.071 -91.966)"/>
                <path id="Path_86" d="M917.18 128.259c-.424 1.3-1.6 2.481-2.857 2.214s-1.867-1.693-2.8-2.582a3.81 3.81 0 0 0-4.394-.614 4.436 4.436 0 0 0-2.159 3.945 4.233 4.233 0 0 1 1.917-2.358 3.81 3.81 0 0 1 4.39.614c.94.893 1.579 2.324 2.807 2.582s2.413-.919 2.853-2.214a11.079 11.079 0 0 0 .449-2.336 6.54 6.54 0 0 1-.206.749z" transform="translate(-872.839 -109.13)"/>
                <path id="Path_87" d="M938.281 101.545c-.914 2.413-2.574 4.5-3.124 7.035-.11.512-.174 1.037-.237 1.562.559-2.54 2.205-4.606 3.12-7.01a12.57 12.57 0 0 0 .755-3.387 12.384 12.384 0 0 1-.512 1.8z" transform="translate(-890.114 -93.504)"/>
            </g>
            <rect id="Rectangle_1" width=".372" height="3.056" class="cls-15" rx=".186" transform="rotate(-26.744 179.958 12.835)"/>
            <rect id="Rectangle_5" width="12.403" height="25.212" class="cls-15" rx="2.24" transform="rotate(-26.744 174.024 41.369)"/>
            <path id="Path_88" d="M659.476 238.745a.423.423 0 0 0-.195.6l.044.08a.423.423 0 0 1-.2.6l-4.694 2.366a.423.423 0 0 1-.6-.195l-.044-.085a.423.423 0 0 0-.6-.195l-.914.457a.846.846 0 0 0-.377 1.143l9.987 19.823a.846.846 0 0 0 1.143.377l8.191-4.128a.846.846 0 0 0 .377-1.139l-9.974-19.826a.846.846 0 0 0-1.138-.372z" class="cls-3" transform="translate(-650.539 -159.792)"/>
        </g>
        <path id="Rectangle_10" d="M0 0H16.187V2.563H0z" class="cls-6" transform="translate(448.195 401.387)"/>
        <path id="Path_95" d="M631.307 264.181v50.491a5.057 5.057 0 0 1-5.066 5.066H620.8V259.12h5.44a5.057 5.057 0 0 1 5.066 5.06z" class="cls-2" transform="translate(-130.822 -93.937)"/>
        <path id="Path_96" d="M632.6 259.2v47.9a5.64 5.64 0 0 1-.932.076h-.779V259.12h.78a5.64 5.64 0 0 1 .931.08z" class="cls-16" transform="translate(-136.246 -87.542)"/>
        <path id="Rectangle_7" d="M0 0H19.615V157.278H0z" class="cls-17" transform="translate(456.851 243.615)"/>
        <path id="Path_97" d="M415.422 726.54h44.911a18.592 18.592 0 0 1 18.592 18.592v2.86h-82.1v-2.86a18.592 18.592 0 0 1 18.597-18.592z" class="cls-17" transform="translate(27.652 -328.114)"/>
        <path id="Rectangle_11" d="M0 0H19.615V18.866H0z" class="cls-6" transform="translate(456.851 265.268)"/>
        <path id="Rectangle_12" d="M0 0H19.615V18.866H0z" class="cls-6" transform="translate(456.851 263.984)"/>
        <path id="Rectangle_13" d="M0 0H23.475V18.866H0z" class="cls-17" transform="translate(455.033 264.624)"/>
        <path id="Path_98" d="M565.919 396.586v7.83a7.346 7.346 0 0 1-7.346 7.345h-26.037a7.346 7.346 0 0 1-7.346-7.346v-7.83a7.341 7.341 0 0 1 7.345-7.336h26.037a7.341 7.341 0 0 1 7.345 7.336z" class="cls-2" transform="translate(-78.887 -164.82)"/>
        <path id="Path_99" d="M565.9 396.586v.8a25.622 25.622 0 0 1-40.742 0v-.8a7.341 7.341 0 0 1 7.345-7.336h26.038a7.341 7.341 0 0 1 7.359 7.336z" class="cls-6" transform="translate(-78.871 -164.82)"/>
        <path id="Path_100" d="M435.149 202h47.1a2.069 2.069 0 0 1 2.069 2.069V263a22.205 22.205 0 0 1-22.203 22.2h-6.83A22.205 22.205 0 0 1 433.08 263v-58.931a2.069 2.069 0 0 1 2.069-2.069z" class="cls-2" transform="translate(7.961 -43.186)"/>
        <path id="Path_101" d="M447.295 135.365h29.694c4.354 0 7.884 2.746 7.884 6.134v17.574c0 1.221-1.272 2.21-2.841 2.21h-39.78c-1.569 0-2.841-.99-2.841-2.21V141.5c0-3.388 3.53-6.134 7.884-6.134z" class="cls-2" transform="translate(4.333 .217)"/>
        <path id="Rectangle_14" d="M0 0H31.935V2.357H0z" class="cls-16" transform="translate(450.152 149.039)"/>
        <path id="Rectangle_15" d="M0 0H40.733V29.56H0z" class="cls-6" transform="translate(446.294 166.379)"/>
        <path id="Rectangle_16" d="M0 0H40.733V29.56H0z" class="cls-18" transform="translate(446.294 165.735)"/>
        <g id="Group_2" class="cls-14" transform="translate(446.522 200.361)">
            <rect id="Rectangle_17" width="9.164" height="3.271" rx=".79"/>
            <rect id="Rectangle_18" width="9.164" height="3.271" rx=".79" transform="translate(10.369)"/>
            <rect id="Rectangle_19" width="9.164" height="3.271" rx=".79" transform="translate(20.739)"/>
            <rect id="Rectangle_20" width="9.164" height="3.271" rx=".79" transform="translate(31.113)"/>
            <rect id="Rectangle_21" width="9.164" height="3.271" rx=".79" transform="translate(0 6.404)"/>
            <rect id="Rectangle_22" width="9.164" height="3.271" rx=".79" transform="translate(10.369 6.404)"/>
            <rect id="Rectangle_23" width="9.164" height="3.271" rx=".79" transform="translate(20.739 6.404)"/>
            <rect id="Rectangle_24" width="9.164" height="3.271" rx=".79" transform="translate(0 12.649)"/>
            <rect id="Rectangle_25" width="9.164" height="3.271" rx=".79" transform="translate(10.369 12.649)"/>
            <rect id="Rectangle_26" width="9.164" height="3.271" rx=".79" transform="translate(20.739 12.649)"/>
            <rect id="Rectangle_27" width="9.164" height="3.271" rx=".79" transform="translate(0 19.537)"/>
            <rect id="Rectangle_28" width="9.164" height="3.271" rx=".79" transform="translate(10.369 19.537)"/>
            <rect id="Rectangle_29" width="9.164" height="3.271" rx=".79" transform="translate(20.739 19.537)"/>
            <rect id="Rectangle_30" width="9.164" height="3.271" rx=".79" transform="translate(31.113 6.404)"/>
            <rect id="Rectangle_31" width="8.122" height="11.658" rx="1.97" transform="translate(31.675 12.297)"/>
        </g>
        <rect id="Rectangle_32" width="9.164" height="3.271" class="cls-19" rx=".79" transform="translate(446.522 199.717)"/>
        <rect id="Rectangle_33" width="9.164" height="3.271" class="cls-19" rx=".79" transform="translate(456.892 199.717)"/>
        <rect id="Rectangle_34" width="9.164" height="3.271" class="cls-19" rx=".79" transform="translate(467.261 199.717)"/>
        <rect id="Rectangle_35" width="9.164" height="3.271" class="cls-18" rx=".79" transform="translate(477.635 199.717)"/>
        <rect id="Rectangle_36" width="9.164" height="3.271" class="cls-19" rx=".79" transform="translate(446.522 206.121)"/>
        <rect id="Rectangle_37" width="9.164" height="3.271" class="cls-19" rx=".79" transform="translate(456.892 206.121)"/>
        <rect id="Rectangle_38" width="9.164" height="3.271" class="cls-19" rx=".79" transform="translate(467.261 206.121)"/>
        <rect id="Rectangle_39" width="9.164" height="3.271" class="cls-19" rx=".79" transform="translate(446.522 212.365)"/>
        <rect id="Rectangle_40" width="9.164" height="3.271" class="cls-19" rx=".79" transform="translate(456.892 212.365)"/>
        <rect id="Rectangle_41" width="9.164" height="3.271" class="cls-19" rx=".79" transform="translate(467.261 212.365)"/>
        <rect id="Rectangle_42" width="9.164" height="3.271" class="cls-19" rx=".79" transform="translate(446.522 219.254)"/>
        <rect id="Rectangle_43" width="9.164" height="3.271" class="cls-19" rx=".79" transform="translate(456.892 219.254)"/>
        <rect id="Rectangle_44" width="9.164" height="3.271" class="cls-19" rx=".79" transform="translate(467.261 219.254)"/>
        <rect id="Rectangle_45" width="9.164" height="3.271" class="cls-18" rx=".79" transform="translate(477.635 206.121)"/>
        <rect id="Rectangle_46" width="8.122" height="11.658" class="cls-3" rx="1.97" transform="translate(478.197 212.018)"/>
        <path id="Rectangle_47" d="M0 0H4.39V0.526H0z" class="cls-20" transform="translate(466.604 191.705)"/>
        <path id="Rectangle_48" d="M0 0H4.39V0.526H0z" class="cls-20" transform="translate(472.752 191.705)"/>
        <path id="Rectangle_49" d="M0 0H4.39V0.526H0z" class="cls-20" transform="translate(478.901 191.705)"/>
    </g>
</svg>
